# xmcd
#
# Track frame offsets: 
#        150
#        12834
#        32013
#        50064
#        67715
#        81903
#        97790
#        110362
#        126640
#        143369
#        163410
#        185213
#
# Disc length: 3602 seconds
#
# Revision: 0
# Processed by: cddbd v1.5.2PL0 Copyright (c) Steve Scherf et al.
# Submitted via: ExactAudioCopy v0.99pb1
#
DISCID=9f0e100c
DTITLE=Buhvi - Hodina
DYEAR=2007
DGENRE=Blues
TTITLE0=Hodina
TTITLE1=Nevim
TTITLE2=Barokni
TTITLE3=Karavany
TTITLE4=I kdyz...
TTITLE5=Nazi jsme byli
TTITLE6=Navsteva
TTITLE7=Podzimni expres
TTITLE8=Nad strzi
TTITLE9=Dum kde se prestalo zit
TTITLE10=Potopa
TTITLE11=Zima
EXTD=
EXTT0=
EXTT1=
EXTT2=
EXTT3=
EXTT4=
EXTT5=
EXTT6=
EXTT7=
EXTT8=
EXTT9=
EXTT10=
EXTT11=
PLAYORDER=
